<svg xmlns="http://www.w3.org/2000/svg" viewBox="0 0 266.66667 225.39744"><title>booster</title><rect x="104.35897" width="117.97436" height="117.97436" fill-opacity="0"/><path d="M152.26666,185.73333,148.37333,193.52c-6.98666,13.97334-19.04,18.98666-28.69333,23.04-1.22667.48-2.34667.96-3.41333,1.44a3.675,3.675,0,0,1-.42667.16l-6.50667-22.82667s-8.64,16-24,16c-5.33333,0-18.66666,0-18.66666-21.33333,0-19.94667,13.22666-48,42.66666-48C130.77334,142,145.22666,168.66667,152.26666,185.73333ZM333.33333,190c0,21.33333-13.33333,21.33333-18.66666,21.33333-15.36,0-24-16-24-16L284.16,218.16a3.67521,3.67521,0,0,1-.42665-.16c-1.06667-.48-2.18667-.96-3.41333-1.44-9.65334-4.05334-21.70667-9.06666-28.69334-23.04l-3.89333-7.78667C254.77334,168.66667,269.22666,142,290.66667,142,320.10667,142,333.33333,170.05333,333.33333,190Zm-52.176,112H118.84267c-14.48,0-30.25067-2.944-41.62134-10.06934,5.25334,20.74667,13.44534,46.704,19.632,57.76A31.97812,31.97812,0,0,0,124.74133,366H275.25867a31.97221,31.97221,0,0,0,27.888-16.31466c6.192-11.056,14.37866-37.01334,19.632-57.76C311.41333,299.056,295.63733,302,281.15733,302ZM118.84267,291.33333h162.32c4.78935,0,46.83734-.752,46.83734-26.66666,0-17.36534-25.552-27.61067-42.45333-34.38934-2.33067-.93867-4.40533-1.77067-6.08-2.50133-1.008-.43734-2.10133-.896-3.25866-1.38134-10.69334-4.46933-25.33334-10.58666-34.10134-28.112l-1.47734-2.94934H159.37067l-1.472,2.94934c-8.76267,17.52533-23.408,23.648-34.10134,28.112-1.15733.48534-2.25066.944-3.25866,1.38134-1.67467.73066-3.74934,1.56266-6.08,2.50133C97.552,237.056,72,247.30133,72,264.66667,72,290.58133,114.048,291.33333,118.84267,291.33333Z" transform="translate(-66.66667 -140.60256)"/></svg>