<svg xmlns="http://www.w3.org/2000/svg" viewBox="0 0 254.37997 336.82709"><title>druga</title><path d="M324.65113,343.08575l-2.68981,5.38022a35.88888,35.88888,0,0,1-32.27762,19.94736H110.3234A35.889,35.889,0,0,1,78.044,348.466l-2.6898-5.38022a24.06206,24.06206,0,0,1,21.52023-34.82008H303.13271a24.06207,24.06207,0,0,1,21.51842,34.82008ZM254.13644,157.89654a6.0202,6.0202,0,0,0-6.01477-6.01477H151.88542a6.02018,6.02018,0,0,0-6.01476,6.01477v42.10335H254.13644ZM133.84113,296.23614H97.75254V157.89654a54.193,54.193,0,0,1,54.13288-54.13289h18.0443V91.73412h-8.65224a18.04429,18.04429,0,0,1-17.50658-22.42L149.78567,45.255a18.02385,18.02385,0,0,1,17.50658-13.66856h65.4226A18.02506,18.02506,0,0,1,250.22141,45.249l6.01477,24.06508a18.0443,18.0443,0,0,1-17.50657,22.42h-8.65224v12.02953h18.0443a54.193,54.193,0,0,1,54.13289,54.13289v138.3396H266.166V157.89654a18.06415,18.06415,0,0,0-18.0443-18.0443H151.88542a18.06414,18.06414,0,0,0-18.04429,18.0443Zm48.11812-192.47249h36.08859V91.73412H181.95925ZM145.87066,296.23614H254.13644V212.02943H145.87066Z" transform="translate(-72.81001 -31.58645)"/></svg>