<svg xmlns="http://www.w3.org/2000/svg" viewBox="0 0 206.76 35"><title>logo-goflexi</title><path d="M36.15,49.88c0,10.07-7,17.58-17,17.58C8.46,67.46,1,59.65,1,49.93S8.22,32.46,19.11,32.46c6.29,0,11.15,2.55,14.19,6.92l-5.6,4.76c-2.25-2.85-5.05-4.57-8.59-4.57A10.13,10.13,0,0,0,8.76,50.13,9.88,9.88,0,0,0,18.92,60.39c4.51,0,7.46-2.26,8.73-5.84H18.72V47.92H36.15ZM56.42,67.46a17.5,17.5,0,1,1,0-35c10.06,0,17.82,7.51,17.82,17.47S66.48,67.46,56.42,67.46Zm0-7.07c5.69,0,10.06-4.52,10.06-10.46a10.07,10.07,0,1,0-20.12,0A10.07,10.07,0,0,0,56.42,60.39Z" transform="translate(-1 -32.46)"/><path d="M99.06,46.77a1.62,1.62,0,0,1,1.19.5,1.59,1.59,0,0,1,.49,1.19v3.46a1.57,1.57,0,0,1-.49,1.15,1.61,1.61,0,0,1-1.19.49H83.66v12a1.59,1.59,0,0,1-.46,1.14,1.54,1.54,0,0,1-1.17.5H78.47a1.69,1.69,0,0,1-1.64-1.64V48.46a1.63,1.63,0,0,1,.49-1.19,1.58,1.58,0,0,1,1.15-.5Zm2.1-14.31a1.67,1.67,0,0,1,1.64,1.63v3.42a1.59,1.59,0,0,1-.49,1.19,1.57,1.57,0,0,1-1.15.49H78.47a1.57,1.57,0,0,1-1.15-.49,1.63,1.63,0,0,1-.49-1.19V34.09A1.6,1.6,0,0,1,77.32,33a1.57,1.57,0,0,1,1.15-.49Zm11.75,0a1.57,1.57,0,0,1,1.15.49,1.6,1.6,0,0,1,.49,1.14V65.44a1.61,1.61,0,0,1-.49,1.15,1.57,1.57,0,0,1-1.15.49h-3.56a1.55,1.55,0,0,1-1.14-.49,1.57,1.57,0,0,1-.49-1.15V34.09a1.56,1.56,0,0,1,.49-1.14,1.55,1.55,0,0,1,1.14-.49ZM130,60.39a1.53,1.53,0,0,1,1.17.49,1.63,1.63,0,0,1,.47,1.15v3.41a1.63,1.63,0,0,1-.47,1.15,1.53,1.53,0,0,1-1.17.49h-10.9a1.53,1.53,0,0,1-1.17-.49,1.59,1.59,0,0,1-.47-1.15V62a1.59,1.59,0,0,1,.47-1.15,1.53,1.53,0,0,1,1.17-.49Zm30.93,0a1.53,1.53,0,0,1,1.17.49,1.67,1.67,0,0,1,.47,1.19v3.42a1.6,1.6,0,0,1-.47,1.14,1.54,1.54,0,0,1-1.17.5H137.8a1.71,1.71,0,0,1-1.64-1.64V62.12a1.62,1.62,0,0,1,.5-1.19,1.55,1.55,0,0,1,1.14-.49ZM137.8,53.19a1.71,1.71,0,0,1-1.64-1.64V48a1.58,1.58,0,0,1,.5-1.15,1.55,1.55,0,0,1,1.14-.49h21a1.63,1.63,0,0,1,1.2.49A1.61,1.61,0,0,1,160.5,48v3.51a1.58,1.58,0,0,1-.49,1.14,1.64,1.64,0,0,1-1.2.5Zm23.12-20.73a1.53,1.53,0,0,1,1.17.49,1.62,1.62,0,0,1,.47,1.14v3.42a1.65,1.65,0,0,1-.47,1.19,1.53,1.53,0,0,1-1.17.49H137.8a1.55,1.55,0,0,1-1.14-.49,1.6,1.6,0,0,1-.5-1.19V34.09a1.57,1.57,0,0,1,.5-1.14,1.55,1.55,0,0,1,1.14-.49Zm36,32.33a1.62,1.62,0,0,1,.33.84,1.8,1.8,0,0,1-.14.89,1.54,1.54,0,0,1-.61.68,1.7,1.7,0,0,1-.89.26h-4.54a1.65,1.65,0,0,1-1.36-.66L180.76,55,171.82,66.8a1.59,1.59,0,0,1-1.31.66h-4.59a1.62,1.62,0,0,1-.86-.24,1.38,1.38,0,0,1-.59-.65,1.61,1.61,0,0,1,.14-1.78l24.24-31.68a1.59,1.59,0,0,1,1.31-.65h4.54a1.6,1.6,0,0,1,.87.25,2.05,2.05,0,0,1,.63.68,1.47,1.47,0,0,1-.19,1.73L185,49.44ZM172.24,43.87l-6.74-8.75a1.45,1.45,0,0,1-.37-.84,1.47,1.47,0,0,1,.19-.89,1.87,1.87,0,0,1,.63-.68,1.54,1.54,0,0,1,.86-.25h4.54a1.84,1.84,0,0,1,.75.16,1.13,1.13,0,0,1,.56.49l6.6,8.75a1.55,1.55,0,0,1,.19,1.78,1.38,1.38,0,0,1-.59.65,1.72,1.72,0,0,1-.91.24h-4.4a1.86,1.86,0,0,1-.75-.17,1.12,1.12,0,0,1-.56-.49Zm33.88,2.48a1.57,1.57,0,0,1,1.17.49,1.69,1.69,0,0,1,.47,1.2v17.5a1.6,1.6,0,0,1-.47,1.14,1.54,1.54,0,0,1-1.17.5h-3.56a1.71,1.71,0,0,1-1.64-1.64V48a1.64,1.64,0,0,1,.5-1.2,1.58,1.58,0,0,1,1.14-.49Zm0-13.89a1.53,1.53,0,0,1,1.17.49,1.62,1.62,0,0,1,.47,1.14v8.66a1.65,1.65,0,0,1-.47,1.19,1.54,1.54,0,0,1-1.17.5h-3.56a1.56,1.56,0,0,1-1.14-.5,1.6,1.6,0,0,1-.5-1.19V34.09a1.57,1.57,0,0,1,.5-1.14,1.55,1.55,0,0,1,1.14-.49Z" transform="translate(-1 -32.46)" fill="#ff006d"/></svg>