<?xml version="1.0" encoding="utf-8"?>
<!-- Generator: Adobe Illustrator 24.0.2, SVG Export Plug-In . SVG Version: 6.00 Build 0)  -->
<svg version="1.1" id="Layer_1" xmlns="http://www.w3.org/2000/svg" xmlns:xlink="http://www.w3.org/1999/xlink" x="0px" y="0px"
	 viewBox="0 0 206.8 35" style="enable-background:new 0 0 206.8 35;" xml:space="preserve">
<style type="text/css">
	.st0{fill:#FFFFFF;}
	.st1{fill:#FF006D;}
</style>
<title>logo-goflexi</title>
<path class="st0" d="M35.2,17.4c0,10.1-7,17.6-17,17.6C7.5,35,0,27.2,0,17.5S7.2,0,18.1,0c6.3,0,11.1,2.5,14.2,6.9l-5.6,4.8
	c-2.2-2.8-5.1-4.6-8.6-4.6C12.5,7,7.9,11.4,7.8,17c0,0.2,0,0.4,0,0.7c-0.2,5.5,4,10,9.5,10.3c0.2,0,0.4,0,0.7,0
	c4.5,0,7.5-2.3,8.7-5.8h-8.9v-6.6h17.4V17.4z M55.4,35c-9.7,0-17.5-7.8-17.5-17.5S45.8,0,55.4,0l0,0c10.1,0,17.8,7.5,17.8,17.5
	S65.5,35,55.4,35z M55.4,27.9c5.7,0,10.1-4.5,10.1-10.5c0.2-5.6-4.1-10.3-9.6-10.5S45.6,11,45.4,16.6c0,0.3,0,0.6,0,0.9
	C45.1,23,49.5,27.7,55,27.9C55.2,27.9,55.3,27.9,55.4,27.9z"/>
<path class="st1" d="M98.1,14.3c0.4,0,0.9,0.2,1.2,0.5c0.3,0.3,0.5,0.7,0.5,1.2v3.5c0,0.4-0.2,0.9-0.5,1.2c-0.3,0.3-0.7,0.5-1.2,0.5
	H82.7v12c0,0.4-0.2,0.8-0.5,1.1c-0.3,0.3-0.7,0.5-1.2,0.5h-3.6c-0.9,0-1.6-0.7-1.6-1.6V16c0-0.4,0.2-0.9,0.5-1.2
	c0.3-0.3,0.7-0.5,1.2-0.5H98.1z M100.2,0c0.9,0,1.6,0.7,1.6,1.6v3.4c0,0.4-0.2,0.9-0.5,1.2c-0.3,0.3-0.7,0.5-1.2,0.5H77.5
	c-0.4,0-0.9-0.2-1.2-0.5c-0.3-0.3-0.5-0.7-0.5-1.2V1.6c0-0.4,0.2-0.8,0.5-1.1C76.6,0.2,77,0,77.5,0L100.2,0z M111.9,0
	c0.4,0,0.9,0.2,1.2,0.5c0.3,0.3,0.5,0.7,0.5,1.1V33c0,0.4-0.2,0.8-0.5,1.2c-0.3,0.3-0.7,0.5-1.2,0.5h-3.6c-0.4,0-0.8-0.2-1.1-0.5
	c-0.3-0.3-0.5-0.7-0.5-1.2V1.6c0-0.4,0.2-0.8,0.5-1.1c0.3-0.3,0.7-0.5,1.1-0.5H111.9z M129,27.9c0.4,0,0.9,0.2,1.2,0.5
	c0.3,0.3,0.5,0.7,0.5,1.2V33c0,0.4-0.2,0.8-0.5,1.2c-0.3,0.3-0.7,0.5-1.2,0.5h-10.9c-0.4,0-0.9-0.2-1.2-0.5
	c-0.3-0.3-0.5-0.7-0.5-1.2v-3.4c0-0.4,0.2-0.8,0.5-1.2c0.3-0.3,0.7-0.5,1.2-0.5L129,27.9z M159.9,27.9c0.4,0,0.9,0.2,1.2,0.5
	c0.3,0.3,0.5,0.7,0.5,1.2V33c0,0.4-0.2,0.8-0.5,1.1c-0.3,0.3-0.7,0.5-1.2,0.5h-23.1c-0.9,0-1.6-0.7-1.6-1.6v-3.4
	c0-0.4,0.2-0.9,0.5-1.2c0.3-0.3,0.7-0.5,1.1-0.5L159.9,27.9z M136.8,20.7c-0.9,0-1.6-0.7-1.6-1.6v-3.5c0-0.4,0.2-0.9,0.5-1.2
	c0.3-0.3,0.7-0.5,1.1-0.5h21c0.5,0,0.9,0.2,1.2,0.5c0.3,0.3,0.5,0.7,0.5,1.2V19c0,0.4-0.2,0.8-0.5,1.1c-0.3,0.3-0.7,0.5-1.2,0.5
	L136.8,20.7z M159.9,0c0.4,0,0.9,0.2,1.2,0.5c0.3,0.3,0.5,0.7,0.5,1.1v3.4c0,0.4-0.2,0.9-0.5,1.2c-0.3,0.3-0.7,0.5-1.2,0.5h-23.1
	c-0.4,0-0.8-0.2-1.1-0.5c-0.3-0.3-0.5-0.7-0.5-1.2V1.6c0-0.4,0.2-0.8,0.5-1.1c0.3-0.3,0.7-0.5,1.1-0.5H159.9z M195.9,32.3
	c0.2,0.2,0.3,0.5,0.3,0.8c0,0.3,0,0.6-0.1,0.9c-0.1,0.3-0.3,0.5-0.6,0.7c-0.3,0.2-0.6,0.3-0.9,0.3h-4.5c-0.5,0-1-0.2-1.4-0.7
	l-9-11.8l-8.9,11.8c-0.3,0.4-0.8,0.7-1.3,0.7h-4.6c-0.3,0-0.6-0.1-0.9-0.2c-0.3-0.1-0.5-0.4-0.6-0.7c-0.3-0.6-0.3-1.3,0.1-1.8
	l24.2-31.7c0.3-0.4,0.8-0.7,1.3-0.7h4.5c0.3,0,0.6,0.1,0.9,0.2c0.3,0.2,0.5,0.4,0.6,0.7c0.3,0.6,0.2,1.3-0.2,1.7L184,17L195.9,32.3z
	 M171.2,11.4l-6.7-8.8c-0.2-0.2-0.3-0.5-0.4-0.8c0-0.3,0-0.6,0.2-0.9c0.1-0.3,0.4-0.5,0.6-0.7c0.3-0.2,0.6-0.3,0.9-0.2h4.5
	c0.3,0,0.5,0.1,0.8,0.2c0.2,0.1,0.4,0.3,0.6,0.5l6.6,8.8c0.4,0.5,0.5,1.2,0.2,1.8c-0.1,0.3-0.3,0.5-0.6,0.7
	c-0.3,0.2-0.6,0.2-0.9,0.2h-4.4c-0.3,0-0.5-0.1-0.8-0.2C171.6,11.8,171.4,11.6,171.2,11.4L171.2,11.4z M205.1,13.9
	c0.4,0,0.9,0.2,1.2,0.5c0.3,0.3,0.5,0.8,0.5,1.2v17.5c0,0.4-0.2,0.8-0.5,1.1c-0.3,0.3-0.7,0.5-1.2,0.5h-3.6c-0.9,0-1.6-0.7-1.6-1.6
	V15.5c0-0.5,0.2-0.9,0.5-1.2c0.3-0.3,0.7-0.5,1.1-0.5L205.1,13.9z M205.1,0c0.4,0,0.9,0.2,1.2,0.5c0.3,0.3,0.5,0.7,0.5,1.1v8.7
	c0,0.4-0.2,0.9-0.5,1.2c-0.3,0.3-0.7,0.5-1.2,0.5h-3.6c-0.4,0-0.8-0.2-1.1-0.5c-0.3-0.3-0.5-0.7-0.5-1.2V1.6c0-0.4,0.2-0.8,0.5-1.1
	c0.3-0.3,0.7-0.5,1.1-0.5H205.1z"/>
</svg>
