<svg xmlns="http://www.w3.org/2000/svg" viewBox="0 0 260.85714 332"><title>prva</title><path d="M247.42857,51.78571a17.78571,17.78571,0,0,1,35.57143,0v59.28572A5.93628,5.93628,0,0,1,277.07143,117H247.42857Zm3.66481,77.07143h10.4561l-44.3134,88.62622a29.43589,29.43589,0,0,0-8.39207-4.128ZM217.78571,241.5A17.78571,17.78571,0,1,1,200,223.71429,17.78572,17.78572,0,0,1,217.78571,241.5ZM164.42857,51.78571V45.85714A11.869,11.869,0,0,1,176.28571,34h47.42858a11.869,11.869,0,0,1,11.85714,11.85714V117H164.42857Zm73.40662,77.07143L200,204.52748l-37.83519-75.67034ZM191.156,213.35559a29.43651,29.43651,0,0,0-8.39206,4.128l-44.31341-88.62645h10.4561ZM117,51.78571a17.78571,17.78571,0,0,1,35.57143,0V117H122.92857A5.93627,5.93627,0,0,1,117,111.07143ZM81.42857,175.02648V75.5A17.80516,17.80516,0,0,1,99.21429,57.71429h5.92857v53.35714a17.80515,17.80515,0,0,0,17.78571,17.78571h2.26377l49.09159,98.18367A29.278,29.278,0,0,0,170.35714,241.5a29.64286,29.64286,0,0,0,59.28572,0,29.27818,29.27818,0,0,0-3.92679-14.45919l49.09159-98.18367h2.26377a17.80515,17.80515,0,0,0,17.78571-17.78571V57.71429h5.92857A17.80515,17.80515,0,0,1,318.57143,75.5v99.52648l-21.63869,48.68781h-8.00417a17.75646,17.75646,0,0,0-16.69326,11.85714h-12.9496a23.74144,23.74144,0,0,0-23.71428,23.71428v11.85715H164.42857V259.28571a23.74143,23.74143,0,0,0-23.71428-23.71428H127.76468a17.75647,17.75647,0,0,0-16.69325-11.85714h-8.00416Zm55.09421,124.02217a5.92638,5.92638,0,0,0,8.38117.00219l.00219-.00219L160.95479,283h78.09043l16.04865,16.04865a5.92792,5.92792,0,0,0,8.38335-8.383l-16.04865-16.049V259.28571a11.869,11.869,0,0,1,11.85714-11.85714h11.85715v59.28572H128.85714V247.42857h11.85715a11.869,11.869,0,0,1,11.85714,11.85714v15.33094L136.52278,290.6653a5.92632,5.92632,0,0,0-.00227,8.38109ZM69.57143,247.42857a11.869,11.869,0,0,1,11.85714-11.85714h29.64286A5.93628,5.93628,0,0,1,117,241.5v68.68808L83.16564,344.02244a5.92792,5.92792,0,1,0,8.32939,8.43695l.05361-.0536,33.83472-33.83436H274.61665L308.451,352.40579a5.92792,5.92792,0,0,0,8.38335-8.383L283,310.18808V241.5a5.93629,5.93629,0,0,1,5.92857-5.92857h29.64286a11.869,11.869,0,0,1,11.85714,11.85714V348.21429A17.80516,17.80516,0,0,1,312.64286,366H87.35714a17.80516,17.80516,0,0,1-17.78571-17.78571Z" transform="translate(-69.57143 -34)"/><path d="M122.92857,354.14286h71.14286a5.92858,5.92858,0,0,0,0-11.85715H122.92857a5.92858,5.92858,0,0,0,0,11.85715Z" transform="translate(-69.57143 -34)"/><path d="M217.78571,354.14286h11.85715a5.92858,5.92858,0,0,0,0-11.85715H217.78571a5.92858,5.92858,0,0,0,0,11.85715Z" transform="translate(-69.57143 -34)"/><path d="M111.07143,211.85714A5.92857,5.92857,0,0,0,117,205.92857V146.64286a5.92857,5.92857,0,1,0-11.85714,0v59.28571A5.92857,5.92857,0,0,0,111.07143,211.85714Z" transform="translate(-69.57143 -34)"/></svg>