<?xml version="1.0" standalone="no"?>
<!DOCTYPE svg PUBLIC "-//W3C//DTD SVG 20010904//EN"
 "http://www.w3.org/TR/2001/REC-SVG-20010904/DTD/svg10.dtd">
<svg version="1.0" xmlns="http://www.w3.org/2000/svg"
 width="460.000000pt" height="460.000000pt" viewBox="0 0 460.000000 460.000000"
 preserveAspectRatio="xMidYMid meet">
<metadata>
Created by potrace 1.14, written by Peter Selinger 2001-2017
</metadata>
<g transform="translate(0.000000,460.000000) scale(0.100000,-0.100000)"
fill="#000000" stroke="none">
<path d="M718 4196 c-42 -18 -86 -65 -103 -110 -15 -40 -15 -101 1 -128 4 -7
184 -243 400 -524 306 -398 400 -514 426 -525 26 -11 97 -14 323 -14 289 0
290 0 332 24 93 53 114 178 46 267 -12 16 -65 88 -119 159 -54 72 -107 142
-118 157 -12 14 -28 35 -36 46 -428 574 -466 622 -506 642 -38 19 -58 20 -330
19 -203 0 -297 -4 -316 -13z"/>
<path d="M3250 4188 c-47 -24 -55 -33 -480 -592 -91 -120 -170 -223 -175 -229
-6 -7 -67 -86 -135 -177 -69 -91 -128 -167 -131 -170 -3 -3 -25 -32 -50 -65
-24 -33 -46 -62 -49 -65 -3 -3 -34 -43 -70 -90 -35 -47 -85 -112 -110 -145
-190 -248 -1264 -1651 -1428 -1867 -118 -155 -130 -188 -97 -274 20 -52 46
-80 95 -101 46 -20 574 -23 631 -4 56 18 -7 -62 822 1041 110 146 207 273 216
283 16 17 20 14 67 -45 27 -35 67 -88 89 -118 22 -30 42 -57 45 -60 3 -3 60
-77 126 -165 65 -88 121 -162 124 -165 3 -3 17 -21 30 -40 13 -19 27 -37 30
-40 3 -3 18 -23 35 -45 16 -22 32 -42 35 -45 3 -3 17 -21 30 -40 14 -19 28
-39 32 -45 23 -28 155 -203 168 -222 37 -53 166 -221 194 -250 48 -52 72 -56
380 -56 301 0 322 3 375 53 52 50 66 142 32 208 -11 20 -58 87 -105 147 -48
61 -102 130 -121 155 -19 25 -88 113 -152 197 -65 83 -174 225 -243 314 -69
89 -143 185 -166 213 -22 28 -72 92 -110 142 -38 50 -123 160 -188 244 -66 84
-143 184 -172 222 l-53 70 87 111 c47 62 113 148 147 192 34 44 132 172 219
285 86 113 181 237 210 275 30 39 106 138 170 220 63 83 119 155 123 160 75
92 252 329 265 355 31 59 16 133 -41 193 -50 54 -68 57 -375 57 -272 0 -283
-1 -326 -22z"/>
</g>
</svg>
