<svg xmlns="http://www.w3.org/2000/svg" viewBox="0 0 360 149.8"><title>stripe-logo</title><path d="M365,94.4c0-25.6-12.4-45.8-36.1-45.8s-38.2,20.2-38.2,45.6c0,30.1,17,45.3,41.4,45.3,11.9,0,20.9-2.7,27.7-6.5V113a53.1,53.1,0,0,1-24.5,5.5c-9.7,0-18.3-3.4-19.4-15.2h48.9C364.8,102,365,96.8,365,94.4Zm-49.4-9.5c0-11.3,6.9-16,13.2-16,6.1,0,12.6,4.7,12.6,16Z" transform="translate(-5 -17)" fill="#fff" fill-rule="evenodd"/><path d="M252.1,48.6a28.25,28.25,0,0,0-19.6,7.8l-1.3-6.2h-22V166.8l25-5.3.1-28.3c3.6,2.6,8.9,6.3,17.7,6.3,17.9,0,34.2-14.4,34.2-46.1C286.1,64.4,269.6,48.6,252.1,48.6Zm-6,68.9c-5.9,0-9.4-2.1-11.8-4.7l-.1-37.1c2.6-2.9,6.2-4.9,11.9-4.9,9.1,0,15.4,10.2,15.4,23.3C261.5,107.5,255.3,117.5,246.1,117.5Z" transform="translate(-5 -17)" fill="#fff" fill-rule="evenodd"/><polygon points="169.8 25.7 194.9 20.3 194.9 0 169.8 5.3 169.8 25.7" fill="#fff" fill-rule="evenodd"/><rect x="169.8" y="33.3" width="25.1" height="87.5" fill="#fff"/><path d="M147.9,57.7l-1.6-7.4H124.7v87.5h25V78.5c5.9-7.7,15.9-6.3,19-5.2v-23C165.5,49.1,153.8,46.9,147.9,57.7Z" transform="translate(-5 -17)" fill="#fff" fill-rule="evenodd"/><path d="M97.9,28.6,73.5,33.8l-.1,80.1c0,14.8,11.1,25.7,25.9,25.7,8.2,0,14.2-1.5,17.5-3.3V116c-3.2,1.3-19,5.9-19-8.9V71.6h19V50.3h-19Z" transform="translate(-5 -17)" fill="#fff" fill-rule="evenodd"/><path d="M30.3,75.7c0-3.9,3.2-5.4,8.5-5.4a55.78,55.78,0,0,1,24.8,6.4V53.2a66,66,0,0,0-24.8-4.6C18.5,48.6,5,59.2,5,76.9c0,27.6,38,23.2,38,35.1,0,4.6-4,6.1-9.6,6.1-8.3,0-18.9-3.4-27.3-8v23.8a69.32,69.32,0,0,0,27.3,5.7c20.8,0,35.1-10.3,35.1-28.2C68.4,81.6,30.3,86.9,30.3,75.7Z" transform="translate(-5 -17)" fill="#fff" fill-rule="evenodd"/></svg>